<svg viewBox="0 0 478 182" fill="none" xmlns="http://www.w3.org/2000/svg">
    <path d="M37.75 175.5C37.9167 173 38.0833 169 38.25 163.5C38.4167 157.833 38.5833 151.417 38.75 144.25C39.0833 136.917 39.3333 129.417 39.5 121.75C39.6667 113.917 39.75 106.417 39.75 99.25C39.9167 92.0833 40 85.9167 40 80.75C40 73.4167 39.9167 65.4167 39.75 56.75C39.5833 47.9167 39.4167 39.5833 39.25 31.75C39.25 23.9167 39.1667 17.5 39 12.5C38.8333 7.33333 38.75 4.75 38.75 4.75L58.75 5.00001C58.75 5.00001 58.6667 6.33334 58.5 9C58.5 11.6667 58.4167 15.4167 58.25 20.25C58.25 24.9167 58.1667 30.5 58 37C58 43.5 57.9167 50.6667 57.75 58.5C57.75 66.3333 57.75 74.5 57.75 83C57.75 91.5 57.75 100.167 57.75 109C57.9167 117.833 58.0833 126.25 58.25 134.25C58.4167 142.25 58.5 149.417 58.5 155.75C58.6667 162.083 58.75 167.083 58.75 170.75C58.9167 174.417 59 176.25 59 176.25L37.75 175.5ZM0.5 18.5L1.25 0.750005C1.25 0.750005 2.91667 0.750005 6.25 0.750005C9.58333 0.750005 13.6667 0.750005 18.5 0.750005C23.3333 0.583341 28.1667 0.500008 33 0.500008C37.8333 0.500008 41.75 0.500008 44.75 0.500008C47.25 0.500008 50.5833 0.500008 54.75 0.500008C58.9167 0.500008 63.4167 0.500008 68.25 0.500008C73.0833 0.333344 77.6667 0.250012 82 0.250012C86.3333 0.0833372 89.8333 0 92.5 0C95.3333 0 96.75 0 96.75 0L97.5 16.5C97.5 16.5 96.1667 16.5 93.5 16.5C91 16.5 87.75 16.5833 83.75 16.75C79.75 16.75 75.4167 16.8333 70.75 17C66.25 17 61.9167 17 57.75 17C53.75 17 50.5 17 48 17C45.5 17 42.25 17.0833 38.25 17.25C34.4167 17.4167 30.3333 17.5833 26 17.75C21.6667 17.75 17.5 17.8333 13.5 18C9.66667 18.1667 6.5 18.3333 4 18.5C1.66667 18.5 0.5 18.5 0.5 18.5Z" fill="currentColor"/>
    <path d="M138.146 178.5C128.48 178.5 120.896 175.5 115.396 169.5C110.063 163.5 106.313 155.417 104.146 145.25C102.98 139.417 102.063 133 101.396 126C100.896 118.833 100.646 111.333 100.646 103.5C100.646 98.5 100.813 93.8333 101.146 89.5C101.48 85 101.896 80.75 102.396 76.75C103.063 72.75 103.896 69 104.896 65.5C107.73 55.6667 112.063 48.0833 117.896 42.75C123.896 37.25 131.73 34.5 141.396 34.5C150.896 34.5 158.23 37.5 163.396 43.5C168.563 49.5 172.313 57.5833 174.646 67.75C175.98 73.0833 176.896 78.9167 177.396 85.25C177.896 91.5833 178.146 98.25 178.146 105.25C178.146 113.417 177.896 121 177.396 128C176.896 135 175.98 141.333 174.646 147C172.98 153.667 170.646 159.417 167.646 164.25C164.646 168.917 160.73 172.5 155.896 175C151.063 177.333 145.146 178.5 138.146 178.5ZM139.896 163.75C145.896 163.75 150.396 161.833 153.396 158C156.563 154 158.73 148.667 159.896 142C160.563 139 160.98 135.833 161.146 132.5C161.48 129 161.646 125.417 161.646 121.75C161.813 117.917 161.896 114 161.896 110C161.896 103.167 161.73 96.5 161.396 90C161.063 83.5 160.396 77.6667 159.396 72.5C158.063 65.5 155.896 59.8333 152.896 55.5C149.896 51.1667 145.563 49 139.896 49C136.23 49 133.146 49.9167 130.646 51.75C128.146 53.4167 126.063 55.8333 124.396 59C122.73 62.1667 121.313 65.8333 120.146 70C119.313 73.5 118.646 77.3333 118.146 81.5C117.646 85.6667 117.313 90 117.146 94.5C116.98 99 116.896 103.583 116.896 108.25C116.896 112.25 116.896 116.25 116.896 120.25C117.063 124.083 117.313 127.75 117.646 131.25C117.98 134.583 118.48 137.833 119.146 141C120.646 147.833 122.98 153.333 126.146 157.5C129.313 161.667 133.896 163.75 139.896 163.75Z" fill="currentColor"/>
    <path d="M277.756 179L258.756 181.75C258.923 178.917 259.089 174.667 259.256 169C259.589 163.333 259.839 156.833 260.006 149.5C260.339 142 260.589 134.167 260.756 126C260.923 117.833 261.006 109.833 261.006 102C261.006 99.8333 261.006 97.0833 261.006 93.75C261.006 90.4167 261.006 86.8333 261.006 83C261.006 79.1667 261.006 75.4167 261.006 71.75C261.006 65.4167 260.423 60.5833 259.256 57.25C258.089 53.75 256.423 51.3333 254.256 50C252.256 48.6667 249.839 48 247.006 48C243.173 48 239.256 49.5833 235.256 52.75C231.423 55.75 228.173 61.1667 225.506 69C223.006 76.6667 221.756 87.5 221.756 101.5L212.256 113.25C212.256 106.583 212.506 99.5833 213.006 92.25C213.506 84.9167 214.506 77.75 216.006 70.75C217.506 63.75 219.673 57.5 222.506 52C225.339 46.3333 229.006 41.8333 233.506 38.5C238.173 35.1667 243.839 33.5 250.506 33.5C255.673 33.5 260.173 34.6667 264.006 37C267.839 39.3333 270.839 43.25 273.006 48.75C275.339 54.0833 276.506 61.3333 276.506 70.5C276.506 75.1667 276.506 79 276.506 82C276.506 84.8333 276.506 87.1667 276.506 89C276.506 90.8333 276.506 92.5833 276.506 94.25C276.506 95.9167 276.506 97.9167 276.506 100.25C276.506 109.417 276.506 118.083 276.506 126.25C276.673 134.25 276.839 141.667 277.006 148.5C277.173 155.333 277.256 161.333 277.256 166.5C277.423 171.667 277.589 175.833 277.756 179ZM204.006 175.75C204.173 172.083 204.339 168 204.506 163.5C204.673 158.833 204.839 153.667 205.006 148C205.339 142.333 205.589 135.917 205.756 128.75C205.923 121.583 206.089 113.5 206.256 104.5C206.423 92.3333 206.423 81.25 206.256 71.25C206.089 61.25 205.839 53.25 205.506 47.25C205.339 41.25 205.256 38.25 205.256 38.25L219.756 38C219.923 40.6667 220.089 44.25 220.256 48.75C220.423 53.25 220.589 58.3333 220.756 64C220.923 69.5 221.089 75.5 221.256 82C221.423 88.3333 221.589 94.8333 221.756 101.5C221.923 114.333 222.089 125.417 222.256 134.75C222.423 144.083 222.506 152.083 222.506 158.75C222.673 165.25 222.756 170.917 222.756 175.75H204.006Z" fill="currentColor"/>
    <path d="M374.045 176C365.712 165 356.462 153.083 346.295 140.25C336.295 127.417 326.878 115.25 318.045 103.75C325.545 94.0833 332.295 85.3333 338.295 77.5C344.295 69.6667 349.795 62.3333 354.795 55.5C359.795 48.6667 364.462 42.0833 368.795 35.75L386.795 36.25C381.295 42.9167 375.712 49.8333 370.045 57C364.378 64.1667 358.628 71.5 352.795 79C347.128 86.5 341.295 94.25 335.295 102.25C344.128 113.583 353.378 125.5 363.045 138C372.878 150.333 383.128 162.75 393.795 175.25L374.045 176ZM306.795 176C306.795 176 306.795 174.083 306.795 170.25C306.962 166.417 307.128 161.333 307.295 155C307.462 148.5 307.628 141.333 307.795 133.5C307.962 125.667 308.045 117.75 308.045 109.75C308.212 101.583 308.295 93.9167 308.295 86.75C308.295 79.5833 308.212 72.0833 308.045 64.25C308.045 56.25 308.045 48.5 308.045 41C308.045 33.5 307.962 26.75 307.795 20.75C307.795 14.75 307.712 10 307.545 6.50001C307.545 2.83334 307.545 1 307.545 1L325.545 1.50001C325.545 1.50001 325.462 3.25001 325.295 6.75C325.295 10.25 325.212 15 325.045 21C324.878 26.8333 324.628 33.4167 324.295 40.75C324.128 48.0833 323.962 55.6667 323.795 63.5C323.795 71.3333 323.795 78.9167 323.795 86.25C323.795 93.5833 323.795 101.333 323.795 109.5C323.962 117.667 324.128 125.667 324.295 133.5C324.628 141.333 324.878 148.417 325.045 154.75C325.212 161.083 325.295 166.167 325.295 170C325.462 173.833 325.545 175.75 325.545 175.75L306.795 176Z" fill="currentColor"/>
    <path d="M437.219 178.5C429.385 178.5 422.969 176.75 417.969 173.25C413.135 169.583 409.302 164.417 406.469 157.75C404.802 153.417 403.469 148.5 402.469 143C401.469 137.333 400.719 131.25 400.219 124.75C399.885 118.083 399.719 111 399.719 103.5C399.719 95.6667 400.052 88.1667 400.719 81C401.385 73.8333 402.635 67.3333 404.469 61.5C407.135 53.1667 411.219 46.5833 416.719 41.75C422.385 36.9167 430.302 34.5 440.469 34.5C449.135 34.5 456.052 37.4167 461.219 43.25C466.385 48.9167 470.302 56.4167 472.969 65.75C474.469 71.4167 475.552 77.5833 476.219 84.25C476.885 90.9167 477.219 97.9167 477.219 105.25C477.219 112.75 477.052 119.833 476.719 126.5C476.385 133 475.719 139 474.719 144.5C473.719 149.833 472.302 154.667 470.469 159C467.635 165.167 463.552 170 458.219 173.5C453.052 176.833 446.052 178.5 437.219 178.5ZM438.969 164.75C441.969 164.75 444.552 164.25 446.719 163.25C448.885 162.25 450.719 160.833 452.219 159C453.885 157 455.219 154.75 456.219 152.25C457.719 148.75 458.802 144.833 459.469 140.5C460.135 136 460.552 131.167 460.719 126C460.885 120.833 460.969 115.5 460.969 110C460.969 102.833 460.802 96 460.469 89.5C460.302 83 459.635 77.1667 458.469 72C457.302 65.5 455.219 60.3333 452.219 56.5C449.219 52.5 444.802 50.5 438.969 50.5C433.469 50.5 429.135 52.1667 425.969 55.5C422.969 58.8333 420.719 63.1667 419.219 68.5C417.719 74 416.802 80.25 416.469 87.25C416.135 94.0833 415.969 101.083 415.969 108.25C415.969 113.417 416.052 118.5 416.219 123.5C416.552 128.333 417.052 133 417.719 137.5C418.385 141.833 419.302 145.833 420.469 149.5C422.135 154.167 424.469 157.917 427.469 160.75C430.469 163.417 434.302 164.75 438.969 164.75Z" fill="currentColor"/>
</svg>
