<svg viewBox="0 0 314 134" fill="none" xmlns="http://www.w3.org/2000/svg">
    <path d="M65.792 69.248L32 73.088L30.976 62.208L61.568 59.008L40.96 8.576L50.944 4.736L90.368 97.024L78.848 101.376L65.792 69.248ZM32.256 19.712L42.88 22.912L10.88 101.888L0 98.944L32.256 19.712Z" fill="currentColor"/>
    <path d="M118.811 87.296L136.603 89.472L140.315 46.208L110.875 43.648L113.051 133.504H101.915L99.355 32.256L152.475 37.12L146.843 100.864L117.531 97.92L118.811 87.296Z" fill="currentColor"/>
    <path d="M165.664 34.56L218.272 30.976L204.704 65.664L193.952 62.208L201.76 42.24L177.184 44.16L179.488 90.496L218.656 84.352L219.68 94.848L168.736 102.144L165.664 34.56Z" fill="currentColor"/>
    <path d="M231.104 0.384003L242.24 0L244.672 100.736L233.536 101.12L231.104 0.384003ZM268.096 44.672L249.024 48.384L246.72 37.248L277.312 31.488L287.552 99.2L276.16 100.992L268.096 44.672Z" fill="currentColor"/>
    <path d="M299.044 6.65601H313.892V21.504H299.044V6.65601ZM300.836 33.152H311.972V101.12H300.836V33.152Z" fill="currentColor"/>
</svg>
